<svg xmlns="http://www.w3.org/2000/svg" width="256" height="256" viewBox="0 0 256 256">
<path fill="#fefffe" d="M -0.5,-0.5 C 84.8333,-0.5 170.167,-0.5 255.5,-0.5C 255.5,84.8333 255.5,170.167 255.5,255.5C 170.167,255.5 84.8333,255.5 -0.5,255.5C -0.5,170.167 -0.5,84.8333 -0.5,-0.5 Z"/>
<path fill="#fe7f26" d="M 128.5,133.5 C 121.734,136.382 115.067,139.549 108.5,143C 107.5,143.667 106.5,143.667 105.5,143C 103.521,135.637 102.021,128.137 101,120.5C 92.7836,116.486 85.6169,111.152 79.5,104.5C 65.8304,87.4877 66.3304,70.821 81,54.5C 101.023,37.8794 124.19,29.8794 150.5,30.5C 169.468,30.5757 187.468,34.7424 204.5,43C 216.45,48.9503 224.95,58.117 230,70.5C 233.184,83.2507 230.518,94.584 222,104.5C 205.022,120.23 184.855,128.73 161.5,130C 153.478,130.737 145.478,130.57 137.5,129.5C 134.076,130.049 131.076,131.382 128.5,133.5 Z"/>
<path fill="#000000" d="M 79.5,104.5 C 85.6169,111.152 92.7836,116.486 101,120.5C 102.021,128.137 103.521,135.637 105.5,143C 106.5,143.667 107.5,143.667 108.5,143C 115.067,139.549 121.734,136.382 128.5,133.5C 139.874,165.556 130.541,189.389 100.5,205C 69.8424,213.584 47.3424,203.75 33,175.5C 24.3555,143.293 35.1888,120.46 65.5,107C 70.0959,105.714 74.7626,104.881 79.5,104.5 Z"/>
<path fill="#3f47cc" d="M 184.5,130.5 C 185.822,130.33 186.989,130.663 188,131.5C 188.499,135.821 188.666,140.154 188.5,144.5C 202.837,144.333 217.171,144.5 231.5,145C 232.833,155.667 232.833,166.333 231.5,177C 217.171,177.5 202.837,177.667 188.5,177.5C 188.666,181.846 188.499,186.179 188,190.5C 186.951,191.517 185.784,191.684 184.5,191C 168.893,181.712 153.893,171.712 139.5,161C 139.645,160.228 139.978,159.561 140.5,159C 155.402,149.725 170.069,140.225 184.5,130.5 Z"/>
<path fill="#b4e61c" d="M 182.5,137.5 C 183.196,141.231 183.862,145.065 184.5,149C 198.829,149.5 213.163,149.667 227.5,149.5C 227.5,157.167 227.5,164.833 227.5,172.5C 213.163,172.333 198.829,172.5 184.5,173C 183.703,176.745 183.203,180.579 183,184.5C 170.918,176.542 158.752,168.709 146.5,161C 158.736,153.392 170.736,145.558 182.5,137.5 Z"/>
</svg>
